<?xml version="1.0" encoding="utf-8"?>
<!-- Generator: Adobe Illustrator 27.6.1, SVG Export Plug-In . SVG Version: 6.00 Build 0)  -->
<svg version="1.1" id="Layer_1" xmlns="http://www.w3.org/2000/svg" xmlns:xlink="http://www.w3.org/1999/xlink" x="0px" y="0px"
	 viewBox="0 0 1882.3 1355.7" style="enable-background:new 0 0 1882.3 1355.7;" xml:space="preserve">
<style type="text/css">
	.st0{fill-rule:evenodd;clip-rule:evenodd;fill:#FFFFFF;}
	.st1{fill:#FFFFFF;}
</style>
<g>
	<path class="st0" d="M1157.2,175.6L1207.5,0H996.9l-32.1,117.6c0,0-384.7-30.8-444.2,390.9c-12.7,291.9,219.8,403.1,219.8,403.1
		l-61.1,212.2H890l44.3-160.3c0,0,352.6,19.6,430.5-366.4C1397.8,306.6,1157.2,175.6,1157.2,175.6z M783.2,760.3
		c0,0-157.2-103.9-96.2-308.4c62-173.8,233.6-181.7,233.6-181.7L783.2,760.3z M1207.5,601.6C1163,787.5,977,810.7,977,810.7
		l135.9-482.5C1114,333.9,1248.8,420.7,1207.5,601.6z"/>
	<g>
		<path class="st1" d="M105.1,1211.7l-77.6,142.8H0l77.8-142.8H105.1z"/>
		<path class="st1" d="M186.7,1211.7l-77.6,142.8H81.7l77.8-142.8H186.7z"/>
		<path class="st1" d="M347.4,1354.5h-88.3v-142.8h25.1v118.9h63.3V1354.5z"/>
		<path class="st1" d="M448.7,1320.3v-108.6h25.1v108.9c0,5.3-1.3,9.8-3.8,13.6c-1.8,2.4-4.5,5.5-8.2,9.4c-3.7,3.9-6.8,6.5-9.2,7.8
			c-4.6,2.9-9.5,4.3-14.6,4.3h-30.3c-5.3,0-10.2-1.4-14.8-4.3c-2.2-1.3-5.3-3.9-9.2-7.8c-3.9-3.9-6.6-7-8.2-9.4
			c-2.5-3.8-3.8-8.4-3.8-13.6v-108.9h25.1v108.4c0,0.6,0.1,1,0.2,1.2c3.3,4.9,6.8,8.4,10.5,10.3l1.2,0.2H437c0.5,0,0.9-0.1,1.2-0.2
			c3.7-1.9,7.1-5.3,10.3-10.3L448.7,1320.3z"/>
		<path class="st1" d="M531.3,1354.5h-25.1v-142.8h25.1V1354.5z"/>
		<path class="st1" d="M671.2,1320.6c0,5.6-1.3,10.1-3.8,13.6c-1.6,2.4-4.3,5.5-8.1,9.4c-3.8,3.9-6.9,6.5-9.3,7.8
			c-5.1,2.9-10,4.3-14.8,4.3h-41.5c-10.3,0-20.5-6.6-30.3-19.8c-1-1.3-2.4-3.7-4.3-7.4l23.6-7.9c3.2,4.5,6.7,8.1,10.5,11
			c0.3,0.2,0.9,0.2,1.7,0.2H634l1.4-0.2c1.7-1,4-2.8,6.7-5.5c2.7-2.7,4.1-4.5,4.1-5.5v-14.1c0-2.4-1-3.7-2.9-4.1l-62.1-17.7
			c-5.9-1.6-10.5-4.9-13.7-9.8c-3.3-4.9-4.9-10.3-4.9-16.2v-12.9c0-5.6,1.2-10.1,3.6-13.6c1.6-2.2,4.3-5.3,8.2-9.2
			c3.9-3.9,7-6.6,9.4-8c5.1-2.9,10-4.3,14.8-4.3H634c10.2,0,20.3,6.6,30.3,19.8c1.6,2.2,3.2,5,4.8,8.4l-24.1,6.9
			c-3.7-5.3-7.2-8.9-10.5-11c-0.2-0.2-0.6-0.2-1.4-0.2h-33.7l-1.4,0.2c-1.9,1-4.1,2.7-6.6,5.3c-2.5,2.5-3.7,4.3-3.7,5.3v11.9
			c0,2.4,0.9,3.7,2.6,4.1l62.3,18.1c5.7,1.6,10.3,4.9,13.6,9.9c3.3,5,5,10.4,5,16.1V1320.6z"/>
		<path class="st1" d="M859.4,1265.6c0,5.4-1.4,10.3-4.3,14.6c-1.1,1.6-3.1,3.8-6,6.6c-2.9,2.8-5.2,4.8-6.9,6.1
			c-2.1,1.6-4.1,2.7-6.2,3.3l28.4,58.3h-27.2l-26.5-56.4h-27.5v56.4h-25.1v-142.8h67.1c6.4,0,12,1.8,17,5.3c1.6,1.1,3.9,3.2,6.8,6.2
			c2.9,3,5,5.3,6.1,6.9c2.9,4.3,4.3,9.2,4.3,14.6V1265.6z M834.3,1265.4v-20.5c0-0.8-0.1-1.4-0.2-1.7c-2.7-4.8-5.3-7.3-7.6-7.6
			h-43.2v38.7h42c1.1,0,2.6-0.9,4.5-2.6c1.9-1.8,3.3-3.5,4.3-5.3C834.2,1266,834.3,1265.7,834.3,1265.4z"/>
		<path class="st1" d="M921.4,1354.5h-25.1v-142.8h25.1V1354.5z"/>
		<path class="st1" d="M1079.3,1354.5h-25.1v-97.7l-28.4,62.6h-16.5l-28.4-62.3v97.4h-25.1v-142.8h28.7l33.4,70.4l33-70.4h28.4
			V1354.5z"/>
		<path class="st1" d="M1226.1,1354.5h-26.7l-10.5-30.3h-54.2l-10.5,30.3h-26.7l49.9-142.8h29.1L1226.1,1354.5z M1181,1300.3
			l-19.1-56.4l-19.3,56.4H1181z"/>
		<path class="st1" d="M1345.7,1354.5h-26.5l-49.4-94.8v94.8h-25.1v-142.8h27l48.9,96v-96h25.1V1354.5z"/>
		<path class="st1" d="M1481.1,1319.8c0,5.6-1.2,10.1-3.6,13.6c-1.6,2.2-4.3,5.2-8.1,9c-3.8,3.7-7,6.3-9.6,7.8
			c-5.1,2.9-9.9,4.3-14.3,4.3h-65.4v-142.8h65.4c5.6,0,10.4,1.4,14.6,4.1c2.4,1.4,5.4,4.1,9.1,7.9c3.7,3.8,6.4,7,8.1,9.6
			c2.5,3.5,3.8,8,3.8,13.6V1319.8z M1405.2,1330.6h38.7c1,0,1.5-0.1,1.7-0.2c1.9-1.1,4.1-2.9,6.7-5.4c2.5-2.5,3.8-4.3,3.8-5.6v-71.9
			c0-0.5-0.1-0.9-0.2-1.2c-3-4.9-6.5-8.4-10.5-10.5c-0.2-0.2-0.9-0.2-2.1-0.2h-38V1330.6z"/>
		<path class="st1" d="M1623.2,1320.6c0,5.3-1.3,9.8-3.8,13.6c-1.9,2.5-4.7,5.7-8.5,9.6c-3.7,3.8-6.7,6.4-9,7.6
			c-4.6,2.9-9.6,4.3-14.8,4.3h-36.3c-5.3,0-10.2-1.4-14.8-4.3c-2.2-1.3-5.3-3.9-9.2-7.8c-3.9-3.9-6.6-7-8.2-9.4
			c-2.5-3.8-3.8-8.4-3.8-13.6v-74.7c0-5.3,1.3-9.8,3.8-13.6c1.6-2.4,4.3-5.5,8.2-9.4c3.9-3.9,7-6.5,9.2-7.8
			c4.6-2.9,9.6-4.3,14.8-4.3h36.3c5.3,0,10.2,1.4,14.8,4.3c2.2,1.3,5.2,3.8,9,7.6c3.7,3.8,6.6,7,8.5,9.6c2.5,3.8,3.8,8.4,3.8,13.6
			V1320.6z M1539.9,1246.5v73.8c0,0.5,0.1,0.8,0.2,1c3.2,4.8,6.7,8.2,10.5,10.3c0.3,0.2,0.7,0.2,1.2,0.2h34.4c0.5,0,0.9-0.1,1.2-0.2
			c3.8-2.1,7.3-5.5,10.5-10.3l0.2-1v-73.8c0-0.6-0.1-1-0.2-1.2c-3.3-4.9-6.8-8.4-10.5-10.5c-0.3-0.2-0.7-0.2-1.2-0.2h-34.4
			c-0.6,0-1,0.1-1.2,0.2c-3.7,2.1-7.2,5.6-10.5,10.5L1539.9,1246.5z"/>
		<path class="st1" d="M1800.6,1211.7l-77.6,142.8h-27.5l77.8-142.8H1800.6z"/>
		<path class="st1" d="M1882.3,1211.7l-77.6,142.8h-27.5l77.8-142.8H1882.3z"/>
	</g>
</g>
</svg>
