<?xml version="1.0" encoding="utf-8"?>
<!-- Generator: Adobe Illustrator 27.6.1, SVG Export Plug-In . SVG Version: 6.00 Build 0)  -->
<svg version="1.1" id="Layer_1" xmlns="http://www.w3.org/2000/svg" xmlns:xlink="http://www.w3.org/1999/xlink" x="0px" y="0px"
	 viewBox="0 0 1888 2500" style="enable-background:new 0 0 1888 2500;" xml:space="preserve">
<style type="text/css">
	.st0{fill-rule:evenodd;clip-rule:evenodd;fill:#FFFFFF;}
</style>
<path class="st0" d="M1418.2,390.6L1530.3,0h-468.7l-71.3,261.6c0,0-856-68.6-988.3,869.6c-28.2,649.5,489,896.8,489,896.8
	L355.3,2500h468.7l98.5-356.7c0,0,784.4,43.6,957.7-815.2C1953.6,682,1418.2,390.6,1418.2,390.6z M586.2,1691.6
	c0,0-349.7-231.2-214-686.2c137.9-386.7,519.6-404.2,519.6-404.2L586.2,1691.6z M1530.3,1338.3c-99.2,413.6-512.8,465.4-512.8,465.4
	l302.3-1073.4C1322.2,742.7,1622.1,935.9,1530.3,1338.3z"/>
</svg>
