<?xml version="1.0" encoding="utf-8"?>
<!-- Generator: Adobe Illustrator 27.6.1, SVG Export Plug-In . SVG Version: 6.00 Build 0)  -->
<svg version="1.1" id="Layer_1" xmlns="http://www.w3.org/2000/svg" xmlns:xlink="http://www.w3.org/1999/xlink" x="0px" y="0px"
	 viewBox="0 0 5444.9 419.3" style="enable-background:new 0 0 5444.9 419.3;" xml:space="preserve">
<style type="text/css">
	.st0{fill:#FFFFFF;}
</style>
<g>
	<path class="st0" d="M303.9,2.8L79.4,415.8H0L225.2,2.8H303.9z"/>
	<path class="st0" d="M540.1,2.8L315.7,415.8h-79.4L461.4,2.8H540.1z"/>
	<path class="st0" d="M1005,415.8H749.4V2.8h72.5v344h183V415.8z"/>
	<path class="st0" d="M1297.8,317V2.8h72.5v315c0,15.2-3.7,28.3-11.1,39.4c-5.1,6.9-13,16-23.8,27.3c-10.8,11.3-19.7,18.8-26.6,22.4
		c-13.4,8.3-27.4,12.4-42.1,12.4H1179c-15.2,0-29.5-4.1-42.8-12.4c-6.5-3.7-15.3-11.2-26.6-22.4c-11.3-11.3-19.2-20.4-23.8-27.3
		c-7.4-11.1-11.1-24.2-11.1-39.4V2.8h72.5v313.6c0,1.8,0.2,3,0.7,3.5c9.7,14.3,19.8,24.2,30.4,29.7l3.5,0.7h82.2
		c1.4,0,2.5-0.2,3.5-0.7c10.6-5.5,20.5-15.4,29.7-29.7L1297.8,317z"/>
	<path class="st0" d="M1536.8,415.8h-72.5V2.8h72.5V415.8z"/>
	<path class="st0" d="M1941.6,317.7c0,16.1-3.7,29.2-11.1,39.4c-4.6,6.9-12.4,16-23.5,27.3c-11.1,11.3-20,18.8-26.9,22.4
		c-14.7,8.3-29,12.4-42.8,12.4h-120.2c-29.9,0-59.2-19.1-87.7-57.3c-2.8-3.7-6.9-10.8-12.4-21.4l68.4-22.8
		c9.2,12.9,19.3,23.5,30.4,31.8c0.9,0.5,2.5,0.7,4.8,0.7h113.3l4.1-0.7c5.1-2.8,11.5-8.1,19.3-15.9c7.8-7.8,11.7-13.1,11.7-15.9V277
		c0-6.9-2.8-10.8-8.3-11.7l-179.6-51.1c-17-4.6-30.3-14-39.7-28.3c-9.4-14.3-14.2-29.9-14.2-47v-37.3c0-16.1,3.5-29.2,10.4-39.4
		c4.6-6.4,12.5-15.3,23.8-26.6c11.3-11.3,20.4-19,27.3-23.1c14.7-8.3,29-12.4,42.8-12.4h102.2c29.5,0,58.7,19.1,87.7,57.3
		c4.6,6.5,9.2,14.5,13.8,24.2l-69.8,20c-10.6-15.2-20.7-25.8-30.4-31.8c-0.5-0.5-1.8-0.7-4.1-0.7h-97.4l-4.1,0.7
		c-5.5,2.8-11.9,7.8-19,15.2c-7.1,7.4-10.7,12.4-10.7,15.2v34.5c0,6.9,2.5,10.8,7.6,11.7l180.3,52.5c16.6,4.6,29.7,14.2,39.4,28.7
		c9.7,14.5,14.5,30,14.5,46.6V317.7z"/>
	<path class="st0" d="M2485.9,158.9c0,15.7-4.1,29.7-12.4,42.1c-3.2,4.6-9,10.9-17.3,19c-8.3,8.1-15,13.9-20,17.6
		c-6,4.6-12,7.8-18,9.7l82.2,168.5h-78.7l-76.7-163h-79.4v163H2193V2.8h194.1c18.4,0,34.8,5.1,49,15.2c4.6,3.2,11.2,9.2,19.7,18
		c8.5,8.8,14.4,15.4,17.6,20c8.3,12.4,12.4,26.5,12.4,42.1V158.9z M2413.3,158.2V98.8c0-2.3-0.2-3.9-0.7-4.8
		c-7.8-13.8-15.2-21.2-22.1-22.1h-125v111.9h121.6c3.2,0,7.6-2.5,13.1-7.6c5.5-5.1,9.7-10.1,12.4-15.2
		C2413.1,160,2413.3,159.1,2413.3,158.2z"/>
	<path class="st0" d="M2665.5,415.8h-72.5V2.8h72.5V415.8z"/>
	<path class="st0" d="M3122,415.8h-72.5V133.3l-82.2,181h-47.7L2837.4,134v281.8h-72.5V2.8h82.9l96.7,203.8l95.3-203.8h82.2V415.8z"
		/>
	<path class="st0" d="M3546.8,415.8h-77.4l-30.4-87.7h-156.8l-30.4,87.7h-77.4L3318.9,2.8h84.3L3546.8,415.8z M3416.3,259L3361,96
		l-55.9,163H3416.3z"/>
	<path class="st0" d="M3892.9,415.8h-76.7l-143-274.2v274.2h-72.5V2.8h78.1l141.6,277.7V2.8h72.5V415.8z"/>
	<path class="st0" d="M4284.5,315.7c0,16.1-3.5,29.2-10.4,39.4c-4.6,6.5-12.4,15.1-23.5,25.9c-11.1,10.8-20.3,18.3-27.6,22.4
		c-14.7,8.3-28.6,12.4-41.4,12.4h-189.3V2.8h189.3c16.1,0,30.2,3.9,42.1,11.7c6.9,4.1,15.6,11.7,26.2,22.8
		c10.6,11.1,18.4,20.3,23.5,27.6c7.4,10.1,11.1,23.3,11.1,39.4V315.7z M4064.8,346.7h111.9c2.8,0,4.4-0.2,4.8-0.7
		c5.5-3.2,12-8.4,19.3-15.5c7.4-7.1,11.1-12.5,11.1-16.2V106.4c0-1.4-0.2-2.5-0.7-3.5c-8.8-14.3-18.9-24.4-30.4-30.4
		c-0.5-0.5-2.5-0.7-6.2-0.7h-109.8V346.7z"/>
	<path class="st0" d="M4695.5,317.7c0,15.2-3.7,28.3-11.1,39.4c-5.5,7.4-13.7,16.6-24.5,27.6c-10.8,11.1-19.5,18.4-25.9,22.1
		c-13.4,8.3-27.6,12.4-42.8,12.4h-105c-15.2,0-29.5-4.1-42.8-12.4c-6.5-3.7-15.3-11.2-26.6-22.4c-11.3-11.3-19.2-20.4-23.8-27.3
		c-7.4-11.1-11.1-24.2-11.1-39.4V101.5c0-15.2,3.7-28.3,11.1-39.4c4.6-6.9,12.5-16,23.8-27.3c11.3-11.3,20.1-18.8,26.6-22.4
		C4456.7,4.1,4471,0,4486.2,0h105c15.2,0,29.5,4.1,42.8,12.4c6.4,3.7,15.1,11.1,25.9,22.1c10.8,11.1,19,20.3,24.5,27.6
		c7.4,11.1,11.1,24.2,11.1,39.4V317.7z M4454.4,103.6V317c0,1.4,0.2,2.3,0.7,2.8c9.2,13.8,19.3,23.7,30.4,29.7
		c0.9,0.5,2.1,0.7,3.5,0.7h99.5c1.4,0,2.5-0.2,3.5-0.7c11.1-6,21.2-15.9,30.4-29.7l0.7-2.8V103.6c0-1.8-0.2-3-0.7-3.5
		c-9.7-14.3-19.8-24.4-30.4-30.4c-0.9-0.5-2.1-0.7-3.5-0.7h-99.5c-1.8,0-3,0.2-3.5,0.7c-10.6,6-20.7,16.1-30.4,30.4L4454.4,103.6z"
		/>
	<path class="st0" d="M5208.7,2.8l-224.5,413.1h-79.4L5129.9,2.8H5208.7z"/>
	<path class="st0" d="M5444.9,2.8l-224.5,413.1H5141L5366.1,2.8H5444.9z"/>
</g>
</svg>
