<?xml version="1.0" encoding="utf-8"?>
<!-- Generator: Adobe Illustrator 27.6.1, SVG Export Plug-In . SVG Version: 6.00 Build 0)  -->
<svg version="1.1" id="Layer_1" xmlns="http://www.w3.org/2000/svg" xmlns:xlink="http://www.w3.org/1999/xlink" x="0px" y="0px"
	 viewBox="0 0 6293.6 834.4" style="enable-background:new 0 0 6293.6 834.4;" xml:space="preserve">
<style type="text/css">
	.st0{fill-rule:evenodd;clip-rule:evenodd;fill:#FFFFFF;}
	.st1{fill:#FFFFFF;}
</style>
<g>
	<path class="st0" d="M473,130.4L510.4,0H354l-23.8,87.3c0,0-285.7-22.9-329.9,290.2C-9,594.3,163.6,676.8,163.6,676.8l-45.3,157.6
		h156.4l32.9-119c0,0,261.8,14.6,319.6-272.1C651.7,227.6,473,130.4,473,130.4z M195.3,564.6c0,0-116.7-77.2-71.4-229
		c46-129.1,173.4-134.9,173.4-134.9L195.3,564.6z M510.4,446.7C477.3,584.8,339.3,602,339.3,602l100.9-358.3
		C441,247.9,541.1,312.4,510.4,446.7z"/>
	<g>
		<path class="st1" d="M1152.7,210.3L928.2,623.4h-79.4l225.2-413.1H1152.7z"/>
		<path class="st1" d="M1388.9,210.3l-224.5,413.1H1085l225.2-413.1H1388.9z"/>
		<path class="st1" d="M1853.7,623.4h-255.6V210.3h72.5v344h183V623.4z"/>
		<path class="st1" d="M2146.6,524.6V210.3h72.5v315c0,15.2-3.7,28.3-11.1,39.4c-5.1,6.9-13,16-23.8,27.3
			c-10.8,11.3-19.7,18.8-26.6,22.4c-13.4,8.3-27.4,12.4-42.1,12.4h-87.7c-15.2,0-29.5-4.1-42.8-12.4c-6.5-3.7-15.3-11.2-26.6-22.4
			c-11.3-11.3-19.2-20.4-23.8-27.3c-7.4-11.1-11.1-24.2-11.1-39.4v-315h72.5v313.6c0,1.8,0.2,3,0.7,3.5
			c9.7,14.3,19.8,24.2,30.4,29.7l3.5,0.7h82.2c1.4,0,2.5-0.2,3.5-0.7c10.6-5.5,20.5-15.4,29.7-29.7L2146.6,524.6z"/>
		<path class="st1" d="M2385.6,623.4h-72.5V210.3h72.5V623.4z"/>
		<path class="st1" d="M2790.4,525.3c0,16.1-3.7,29.2-11.1,39.4c-4.6,6.9-12.4,16-23.5,27.3c-11.1,11.3-20,18.8-26.9,22.4
			c-14.7,8.3-29,12.4-42.8,12.4h-120.2c-29.9,0-59.2-19.1-87.7-57.3c-2.8-3.7-6.9-10.8-12.4-21.4l68.4-22.8
			c9.2,12.9,19.3,23.5,30.4,31.8c0.9,0.5,2.5,0.7,4.8,0.7h113.3l4.1-0.7c5.1-2.8,11.5-8.1,19.3-15.9c7.8-7.8,11.7-13.1,11.7-15.9
			v-40.8c0-6.9-2.8-10.8-8.3-11.7L2530,421.7c-17-4.6-30.3-14-39.7-28.3c-9.4-14.3-14.2-29.9-14.2-47v-37.3
			c0-16.1,3.5-29.2,10.4-39.4c4.6-6.4,12.5-15.3,23.8-26.6c11.3-11.3,20.4-19,27.3-23.1c14.7-8.3,29-12.4,42.8-12.4h102.2
			c29.5,0,58.7,19.1,87.7,57.3c4.6,6.5,9.2,14.5,13.8,24.2l-69.8,20c-10.6-15.2-20.7-25.8-30.4-31.8c-0.5-0.5-1.8-0.7-4.1-0.7h-97.4
			l-4.1,0.7c-5.5,2.8-11.9,7.8-19,15.2c-7.1,7.4-10.7,12.4-10.7,15.2v34.5c0,6.9,2.5,10.8,7.6,11.7l180.3,52.5
			c16.6,4.6,29.7,14.2,39.4,28.7c9.7,14.5,14.5,30,14.5,46.6V525.3z"/>
		<path class="st1" d="M3334.6,366.4c0,15.7-4.1,29.7-12.4,42.1c-3.2,4.6-9,10.9-17.3,19c-8.3,8.1-15,13.9-20,17.6
			c-6,4.6-12,7.8-18,9.7l82.2,168.5h-78.7l-76.7-163h-79.4v163h-72.5V210.3h194.1c18.4,0,34.8,5.1,49,15.2c4.6,3.2,11.2,9.2,19.7,18
			c8.5,8.8,14.4,15.4,17.6,20c8.3,12.4,12.4,26.5,12.4,42.1V366.4z M3262.1,365.8v-59.4c0-2.3-0.2-3.9-0.7-4.8
			c-7.8-13.8-15.2-21.2-22.1-22.1h-125v111.9h121.6c3.2,0,7.6-2.5,13.1-7.6c5.5-5.1,9.7-10.1,12.4-15.2
			C3261.9,367.6,3262.1,366.7,3262.1,365.8z"/>
		<path class="st1" d="M3514.2,623.4h-72.5V210.3h72.5V623.4z"/>
		<path class="st1" d="M3970.8,623.4h-72.5V340.9l-82.2,181h-47.7l-82.2-180.3v281.8h-72.5V210.3h82.9l96.7,203.8l95.3-203.8h82.2
			V623.4z"/>
		<path class="st1" d="M4395.6,623.4h-77.4l-30.4-87.7H4131l-30.4,87.7h-77.4l144.4-413.1h84.3L4395.6,623.4z M4265,466.6l-55.3-163
			l-55.9,163H4265z"/>
		<path class="st1" d="M4741.6,623.4H4665l-143-274.2v274.2h-72.5V210.3h78.1L4669.1,488V210.3h72.5V623.4z"/>
		<path class="st1" d="M5133.3,523.2c0,16.1-3.5,29.2-10.4,39.4c-4.6,6.5-12.4,15.1-23.5,25.9c-11.1,10.8-20.3,18.3-27.6,22.4
			c-14.7,8.3-28.6,12.4-41.4,12.4h-189.3V210.3h189.3c16.1,0,30.2,3.9,42.1,11.7c6.9,4.1,15.6,11.7,26.2,22.8
			c10.6,11.1,18.4,20.3,23.5,27.6c7.4,10.1,11.1,23.3,11.1,39.4V523.2z M4913.6,554.3h111.9c2.8,0,4.4-0.2,4.8-0.7
			c5.5-3.2,12-8.4,19.3-15.5c7.4-7.1,11.1-12.5,11.1-16.2V314c0-1.4-0.2-2.5-0.7-3.5c-8.8-14.3-18.9-24.4-30.4-30.4
			c-0.5-0.5-2.5-0.7-6.2-0.7h-109.8V554.3z"/>
		<path class="st1" d="M5544.2,525.3c0,15.2-3.7,28.3-11.1,39.4c-5.5,7.4-13.7,16.6-24.5,27.6c-10.8,11.1-19.5,18.4-25.9,22.1
			c-13.4,8.3-27.6,12.4-42.8,12.4h-105c-15.2,0-29.5-4.1-42.8-12.4c-6.5-3.7-15.3-11.2-26.6-22.4c-11.3-11.3-19.2-20.4-23.8-27.3
			c-7.4-11.1-11.1-24.2-11.1-39.4V309.1c0-15.2,3.7-28.3,11.1-39.4c4.6-6.9,12.5-16,23.8-27.3c11.3-11.3,20.1-18.8,26.6-22.4
			c13.4-8.3,27.6-12.4,42.8-12.4h105c15.2,0,29.5,4.1,42.8,12.4c6.4,3.7,15.1,11.1,25.9,22.1c10.8,11.1,19,20.3,24.5,27.6
			c7.4,11.1,11.1,24.2,11.1,39.4V525.3z M5303.2,311.2v213.4c0,1.4,0.2,2.3,0.7,2.8c9.2,13.8,19.3,23.7,30.4,29.7
			c0.9,0.5,2.1,0.7,3.5,0.7h99.5c1.4,0,2.5-0.2,3.5-0.7c11.1-6,21.2-15.9,30.4-29.7l0.7-2.8V311.2c0-1.8-0.2-3-0.7-3.5
			c-9.7-14.3-19.8-24.4-30.4-30.4c-0.9-0.5-2.1-0.7-3.5-0.7h-99.5c-1.8,0-3,0.2-3.5,0.7c-10.6,6-20.7,16.1-30.4,30.4L5303.2,311.2z"
			/>
		<path class="st1" d="M6057.4,210.3l-224.5,413.1h-79.4l225.2-413.1H6057.4z"/>
		<path class="st1" d="M6293.6,210.3l-224.5,413.1h-79.4l225.2-413.1H6293.6z"/>
	</g>
</g>
</svg>
